Motion_kv05_j
version=1
nRows=10
nColumns=43
inDegrees=yes
endheader
time	pelvis_tilt	pelvis_list	pelvis_rotation	pelvis_tx	pelvis_ty	pelvis_tz	hip_flexion_r	hip_adduction_r	hip_rotation_r	knee_angle_r	ankle_angle_r	subtalar_angle_r	mtp_angle_r	hip_flexion_l	hip_adduction_l	hip_rotation_l	knee_angle_l	ankle_angle_l	subtalar_angle_l	mtp_angle_l	lumbar_extension	lumbar_bending	lumbar_rotation	neck_flexion	neck_lateral_bending	neck_rotation	arm_flex_r	arm_add_r	arm_rot_r	elbow_flex_r	pro_sup_r	wrist_flex_r	wrist_dev_r	hand_finger_flex_r	arm_flex_l	arm_add_l	arm_rot_l	elbow_flex_l	pro_sup_l	wrist_flex_l	wrist_dev_l	hand_finger_flex_l
      0.00250000	     -2.74650671	    -11.78849315	    -92.60701238	     -0.04216864	      0.96269569	      0.18539610	    -16.52612978	     -4.30206551	    -13.64050624	     -1.42715485	     10.86492555	     19.61120832	     -1.71475688	    -19.07659903	     -9.69913632	    -23.84554640	     -1.73135441	      5.80313613	     37.03319214	      8.00869391	    -20.14208861	      3.37508796	      2.05954267	     -6.10541020	     -3.47986342	     -4.01081846	    -27.63452787	    -39.41155758	    -92.51912445	     75.55200864	    103.56894250	     -3.48175532	     -7.97756659	    -19.10514607	    -34.15278010	    -42.08459992	    -94.87538775	     62.67979715	     95.20837674	    -27.66164108	    -10.67220764	      7.03127578
      0.00500000	     -2.78532671	    -11.82991311	    -92.64896567	     -0.04210744	      0.96261798	      0.18520134	    -16.53947561	     -4.28548349	    -13.63136118	     -1.45878097	     10.90793636	     19.62443400	     -1.70968002	    -19.12796819	     -9.72099220	    -23.88357474	     -1.68939437	      5.85419829	     37.05396433	      8.02379897	    -20.23068944	      3.47523426	      2.01592103	     -6.14244918	     -3.57392938	     -3.96621869	    -27.45473240	    -39.00542579	    -92.11955022	     76.14219094	    103.58406105	     -3.38183341	     -8.12736191	    -19.06535830	    -34.04626534	    -41.63579760	    -94.40569305	     62.90282258	     95.27039914	    -27.56526276	    -10.73544452	      7.07335900
      0.00750000	     -2.87723080	    -11.95954557	    -92.67895353	     -0.04184068	      0.96264336	      0.18539349	    -16.63292637	     -4.22359046	    -13.61646896	     -1.58017296	     10.94054401	     19.63896876	     -1.70544995	    -19.31027354	     -9.78982301	    -23.95132372	     -1.70753344	      5.90543910	     37.12015252	      8.05539067	    -20.38572275	      3.65288760	      1.97565213	     -6.29855972	     -3.95391792	     -3.80289927	    -27.37520231	    -38.65590560	    -91.79357103	     76.66264581	    103.69371633	     -3.22814546	     -8.24892851	    -18.96496811	    -33.98456551	    -41.00369665	    -93.91618059	     63.37882700	     95.39395666	    -27.47525836	    -10.93810141	      7.12293097
      0.01000000	     -2.96879823	    -12.10338071	    -92.72068026	     -0.04166406	      0.96270615	      0.18543323	    -16.77514111	     -4.15738602	    -13.60631585	     -1.60951527	     10.95099118	     19.66179371	     -1.70275998	    -19.50729236	     -9.84950216	    -24.05475807	     -1.67402853	      5.97442033	     37.20557061	      8.09110092	    -20.57249724	      3.80812773	      1.94642475	     -6.41691114	     -4.17617824	     -3.70433127	    -27.24197141	    -38.28959029	    -91.45200616	     77.18162870	    103.87940819	     -3.05136377	     -8.37405780	    -18.82883219	    -33.90378484	    -40.46389374	    -93.42866023	     63.71330922	     95.52649228	    -27.37785752	    -11.14540880	      7.16508184
      0.01250000	     -2.99654743	    -12.16851944	    -92.74363781	     -0.04163384	      0.96267398	      0.18530929	    -16.83342644	     -4.13604186	    -13.59442743	     -1.60040162	     10.97895889	     19.67818081	     -1.69785629	    -19.59937766	     -9.85756101	    -24.10950197	     -1.63469792	      6.03127319	     37.24366856	      8.10713826	    -20.69412314	      3.87888176	      1.89755240	     -6.47406648	     -4.25810889	     -3.68278872	    -27.03031686	    -37.85466204	    -91.10998592	     77.71005939	    103.96013025	     -2.94817770	     -8.51480266	    -18.76384222	    -33.80645871	    -40.01175914	    -92.94253722	     63.94744522	     95.61250077	    -27.27530762	    -11.26287005	      7.20437776
      0.01500000	     -3.21548275	    -12.64510417	    -92.83780459	     -0.04153275	      0.96323708	      0.18577596	    -17.44280165	     -3.94615901	    -13.62055185	     -1.48760360	     10.88048783	     19.75620727	     -1.70368573	    -20.30490597	     -9.99314545	    -24.55477650	     -1.42590199	      6.06380521	     37.64624844	      8.19020947	    -21.20637238	      4.11261498	      1.95957561	     -6.58918799	     -4.58887168	     -3.85852108	    -26.91861669	    -37.53335982	    -90.88795242	     78.09749708	    104.95851933	     -2.56428997	     -8.71097695	    -18.25039691	    -33.67056373	    -39.48412724	    -92.44653433	     64.24542099	     95.91350519	    -27.16568484	    -11.82256734	      7.23155543
      0.01750000	     -3.20324760	    -12.68069628	    -92.84537622	     -0.04143832	      0.96314663	      0.18563074	    -17.46719378	     -3.97134656	    -13.60070137	     -1.47813095	     10.90682405	     19.77392702	     -1.69904839	    -20.32373790	     -9.97154220	    -24.58848946	     -1.44838866	      6.06260207	     37.69378178	      8.19425194	    -21.31006992	      4.13655999	      1.91409210	     -6.61986152	     -4.64840695	     -3.84304708	    -26.77235513	    -37.09482308	    -90.52406557	     78.57224218	    105.00162638	     -2.49952710	     -8.84401082	    -18.20928818	    -33.58507232	    -39.02292893	    -91.92864153	     64.52478866	     95.98352292	    -27.05181471	    -11.91097457	      7.27608597
      0.02000000	     -3.18546015	    -12.78034594	    -92.84442324	     -0.04117033	      0.96312068	      0.18587610	    -17.58483736	     -4.02981605	    -13.57903942	     -1.52245226	     10.95425003	     19.78408752	     -1.69209095	    -20.42447428	     -9.94123354	    -24.64213684	     -1.49513199	      6.05332505	     37.80971414	      8.20184781	    -21.41805615	      4.16333809	      1.88666200	     -6.70948591	     -4.90975358	     -3.89293220	    -26.71501911	    -36.69752698	    -90.18547888	     78.93950183	    105.15360644	     -2.43464151	     -8.99325385	    -18.12837501	    -33.51703786	    -38.46667114	    -91.36329376	     64.99678038	     96.08134455	    -26.93173578	    -12.09355752	      7.32755388
      0.02250000	     -3.18738944	    -12.82038133	    -92.85394723	     -0.04114233	      0.96304922	      0.18569307	    -17.61473509	     -4.03006056	    -13.56403746	     -1.49944442	     11.00590719	     19.79730245	     -1.68596764	    -20.48077825	     -9.92606483	    -24.68797417	     -1.45415687	      6.09606080	     37.85207935	      8.20994405	    -21.53187592	      4.19104418	      1.84761832	     -6.75470266	     -4.99097419	     -3.93438042	    -26.53401110	    -36.28032490	    -89.81490077	     79.33590668	    105.22133671	     -2.36357263	     -9.12924836	    -18.08266050	    -33.40331761	    -38.03223164	    -90.82644517	     65.23292180	     96.15025386	    -26.81523752	    -12.18717653	      7.37114538
      0.02500000	     -3.19315353	    -12.96401263	    -92.86769077	     -0.04084747	      0.96307852	      0.18601481	    -17.78079750	     -4.07042005	    -13.53255652	     -1.54254950	     11.07348940	     19.80648902	     -1.68330074	    -20.66155539	     -9.90361230	    -24.76790204	     -1.46876872	      6.11166124	     37.97632189	      8.21816416	    -21.67959722	      4.24002585	      1.85508085	     -6.89098234	     -5.28361934	     -4.08037830	    -26.53434647	    -35.92198141	    -89.49003316	     79.62653346	    105.46135845	     -2.29573928	     -9.32846762	    -17.98249394	    -33.32215794	    -37.47997265	    -90.21924009	     65.68563130	     96.24931859	    -26.68986882	    -12.41376562	      7.42545752
